<svg id="svg" version="1.1" xmlns="http://www.w3.org/2000/svg" xmlns:xlink="http://www.w3.org/1999/xlink" width="400" height="400" viewBox="0, 0, 400,400"><g id="svgg"><path id="path0" d="M0.000 200.000 L 0.000 400.000 200.000 400.000 L 400.000 400.000 400.000 200.000 L 400.000 0.000 200.000 0.000 L 0.000 0.000 0.000 200.000 M115.588 52.780 C 116.734 53.001,117.704 53.505,118.288 54.185 L 119.200 55.245 119.210 105.322 C 119.215 133.743,119.376 156.075,119.581 156.960 C 120.395 160.469,117.589 160.174,152.311 160.400 C 176.210 160.556,183.198 160.713,183.896 161.112 C 185.952 162.287,186.041 162.985,185.916 177.046 L 185.800 190.070 184.707 191.009 C 183.031 192.451,183.309 192.444,131.309 192.318 L 82.418 192.200 81.309 191.091 L 80.200 189.982 80.200 122.423 L 80.200 54.864 81.149 53.854 C 81.671 53.298,82.571 52.771,83.149 52.682 C 85.251 52.358,113.849 52.444,115.588 52.780 M277.749 64.734 C 279.921 65.430,282.531 66.002,283.549 66.004 C 284.640 66.006,286.221 66.390,287.400 66.939 C 288.500 67.451,290.333 68.180,291.474 68.558 C 292.614 68.937,295.020 70.232,296.819 71.436 C 298.618 72.641,300.613 73.897,301.253 74.227 C 303.468 75.373,308.141 80.218,310.678 84.000 C 312.081 86.090,313.835 88.650,314.577 89.690 C 315.319 90.729,316.240 92.439,316.625 93.490 C 317.009 94.540,317.818 96.570,318.422 98.000 C 319.026 99.430,319.733 101.680,319.992 103.000 C 320.252 104.320,320.893 107.020,321.417 109.000 C 322.811 114.264,322.404 136.975,320.889 138.489 L 319.978 139.400 280.554 139.600 L 241.131 139.800 240.117 140.978 C 237.788 143.686,241.862 155.413,246.524 159.419 C 249.420 161.908,256.837 165.195,261.000 165.836 C 262.980 166.141,265.680 166.571,267.000 166.793 C 270.028 167.301,279.315 167.297,283.000 166.785 C 284.540 166.572,287.816 166.220,290.279 166.004 C 293.548 165.718,295.331 165.349,296.879 164.640 C 298.750 163.783,302.382 162.496,306.824 161.117 C 308.959 160.455,310.342 160.964,311.057 162.675 C 311.889 164.665,311.686 182.786,310.813 184.527 C 309.916 186.314,305.377 188.735,301.697 189.389 C 299.994 189.691,297.585 190.407,296.344 190.979 C 294.738 191.719,293.125 192.086,290.744 192.252 C 288.905 192.380,286.050 192.813,284.400 193.213 C 276.420 195.149,257.727 195.391,251.600 193.637 C 249.950 193.165,247.020 192.604,245.088 192.391 C 242.948 192.155,240.917 191.667,239.888 191.141 C 238.960 190.667,236.919 189.883,235.353 189.399 C 222.239 185.347,208.824 170.984,203.412 155.200 C 200.403 146.426,198.980 131.305,200.388 123.069 C 200.822 120.533,201.297 116.960,201.444 115.129 C 202.487 102.164,215.047 81.991,226.600 74.726 C 231.943 71.366,236.150 69.095,238.600 68.248 C 240.140 67.716,242.030 67.014,242.800 66.688 C 243.570 66.363,245.277 65.967,246.593 65.808 C 247.909 65.649,249.917 65.171,251.054 64.745 C 256.621 62.663,271.269 62.656,277.749 64.734 M257.151 90.136 C 246.251 94.160,235.362 109.799,240.136 114.572 L 241.164 115.600 262.960 115.600 L 284.755 115.600 285.845 114.663 C 287.263 113.443,287.265 112.277,285.856 106.200 C 284.143 98.807,280.902 94.528,274.639 91.386 L 271.477 89.800 265.039 89.700 C 260.434 89.629,258.187 89.753,257.151 90.136 M301.892 217.309 L 303.000 218.417 303.114 233.589 C 303.256 252.577,303.129 253.034,298.262 251.000 C 297.145 250.533,295.017 250.400,288.692 250.400 L 280.558 250.400 277.189 252.029 C 269.338 255.826,265.955 259.546,262.124 268.600 L 260.600 272.200 260.400 307.200 C 260.183 345.117,260.295 343.441,257.915 344.445 C 256.044 345.235,224.815 345.260,222.952 344.473 C 220.698 343.521,220.800 346.512,220.800 281.363 L 220.800 220.764 221.746 219.817 C 223.114 218.449,224.975 218.327,242.218 218.472 C 261.644 218.635,260.394 217.933,260.398 228.674 C 260.402 238.596,261.902 239.308,266.433 231.539 C 269.771 225.815,276.471 220.319,282.400 218.441 C 283.830 217.988,285.990 217.251,287.200 216.803 C 290.875 215.443,300.353 215.769,301.892 217.309 M184.800 218.923 C 187.709 219.915,187.599 218.634,187.599 251.382 C 187.600 281.310,187.460 284.905,185.918 294.400 C 185.472 297.150,184.942 300.660,184.742 302.200 C 184.316 305.465,182.403 311.407,180.945 313.995 C 180.386 314.988,179.525 316.880,179.033 318.200 C 177.130 323.301,170.189 331.673,164.959 335.174 C 160.246 338.329,152.896 341.860,150.400 342.167 C 149.190 342.316,146.925 342.874,145.366 343.408 C 140.467 345.084,136.807 345.255,108.709 345.123 L 82.418 345.000 81.309 343.892 L 80.200 342.783 80.074 331.492 C 79.941 319.476,80.149 317.601,81.714 316.707 C 82.392 316.319,88.427 316.153,107.400 316.000 L 132.200 315.800 135.000 314.478 C 140.831 311.724,142.980 309.369,145.597 302.864 C 147.814 297.353,147.970 294.101,147.997 252.800 C 148.020 217.248,147.832 219.511,150.829 218.805 C 153.120 218.265,183.177 218.369,184.800 218.923 " stroke="none" fill="#7c72ef" fill-rule="evenodd"></path><path id="path1" d="M83.149 52.682 C 82.571 52.771,81.671 53.298,81.149 53.854 L 80.200 54.864 80.200 122.423 L 80.200 189.982 81.309 191.091 L 82.418 192.200 131.309 192.318 C 183.309 192.444,183.031 192.451,184.707 191.009 L 185.800 190.070 185.916 177.046 C 186.041 162.985,185.952 162.287,183.896 161.112 C 183.198 160.713,176.210 160.556,152.311 160.400 C 117.589 160.174,120.395 160.469,119.581 156.960 C 119.376 156.075,119.215 133.743,119.210 105.322 L 119.200 55.245 118.288 54.185 C 117.704 53.505,116.734 53.001,115.588 52.780 C 113.849 52.444,85.251 52.358,83.149 52.682 M254.861 63.610 C 253.905 63.809,252.192 64.320,251.054 64.745 C 249.917 65.171,247.909 65.649,246.593 65.808 C 245.277 65.967,243.570 66.363,242.800 66.688 C 242.030 67.014,240.140 67.716,238.600 68.248 C 236.150 69.095,231.943 71.366,226.600 74.726 C 215.047 81.991,202.487 102.164,201.444 115.129 C 201.297 116.960,200.822 120.533,200.388 123.069 C 199.269 129.615,199.402 132.804,201.378 146.800 C 203.950 165.012,219.491 184.498,235.353 189.399 C 236.919 189.883,238.960 190.667,239.888 191.141 C 240.917 191.667,242.948 192.155,245.088 192.391 C 247.020 192.604,249.950 193.165,251.600 193.637 C 257.727 195.391,276.420 195.149,284.400 193.213 C 286.050 192.813,288.905 192.380,290.744 192.252 C 293.125 192.086,294.738 191.719,296.344 190.979 C 297.585 190.407,299.994 189.691,301.697 189.389 C 305.377 188.735,309.916 186.314,310.813 184.527 C 311.686 182.786,311.889 164.665,311.057 162.675 C 310.342 160.964,308.959 160.455,306.824 161.117 C 302.382 162.496,298.750 163.783,296.879 164.640 C 295.331 165.349,293.548 165.718,290.279 166.004 C 287.816 166.220,284.540 166.572,283.000 166.785 C 279.315 167.297,270.028 167.301,267.000 166.793 C 265.680 166.571,262.980 166.141,261.000 165.836 C 256.837 165.195,249.420 161.908,246.524 159.419 C 241.862 155.413,237.788 143.686,240.117 140.978 L 241.131 139.800 280.554 139.600 L 319.978 139.400 320.889 138.489 C 322.404 136.975,322.811 114.264,321.417 109.000 C 320.893 107.020,320.252 104.320,319.992 103.000 C 319.733 101.680,319.026 99.430,318.422 98.000 C 317.818 96.570,317.009 94.540,316.625 93.490 C 316.240 92.439,315.319 90.729,314.577 89.690 C 313.835 88.650,312.081 86.090,310.678 84.000 C 308.141 80.218,303.468 75.373,301.253 74.227 C 300.613 73.897,298.618 72.641,296.819 71.436 C 295.020 70.232,292.614 68.937,291.474 68.558 C 290.333 68.180,288.500 67.451,287.400 66.939 C 286.221 66.390,284.640 66.006,283.549 66.004 C 282.531 66.002,279.921 65.430,277.749 64.734 C 273.522 63.379,259.332 62.682,254.861 63.610 M274.639 91.386 C 280.902 94.528,284.143 98.807,285.856 106.200 C 287.265 112.277,287.263 113.443,285.845 114.663 L 284.755 115.600 262.960 115.600 L 241.164 115.600 240.136 114.572 C 236.254 110.691,244.049 97.076,252.955 92.181 C 257.503 89.681,257.943 89.590,265.039 89.700 L 271.477 89.800 274.639 91.386 M287.200 216.803 C 285.990 217.251,283.830 217.988,282.400 218.441 C 276.471 220.319,269.771 225.815,266.433 231.539 C 261.902 239.308,260.402 238.596,260.398 228.674 C 260.394 217.933,261.644 218.635,242.218 218.472 C 224.975 218.327,223.114 218.449,221.746 219.817 L 220.800 220.764 220.800 281.363 C 220.800 346.512,220.698 343.521,222.952 344.473 C 224.815 345.260,256.044 345.235,257.915 344.445 C 260.295 343.441,260.183 345.117,260.400 307.200 L 260.600 272.200 262.124 268.600 C 265.955 259.546,269.338 255.826,277.189 252.029 L 280.558 250.400 288.692 250.400 C 295.017 250.400,297.145 250.533,298.262 251.000 C 303.129 253.034,303.256 252.577,303.114 233.589 L 303.000 218.417 301.892 217.309 C 300.353 215.769,290.875 215.443,287.200 216.803 M150.829 218.805 C 147.832 219.511,148.020 217.248,147.997 252.800 C 147.970 294.101,147.814 297.353,145.597 302.864 C 142.980 309.369,140.831 311.724,135.000 314.478 L 132.200 315.800 107.400 316.000 C 88.427 316.153,82.392 316.319,81.714 316.707 C 80.149 317.601,79.941 319.476,80.074 331.492 L 80.200 342.783 81.309 343.892 L 82.418 345.000 108.709 345.123 C 136.807 345.255,140.467 345.084,145.366 343.408 C 146.925 342.874,149.190 342.316,150.400 342.167 C 152.896 341.860,160.246 338.329,164.959 335.174 C 170.189 331.673,177.130 323.301,179.033 318.200 C 179.525 316.880,180.386 314.988,180.945 313.995 C 182.403 311.407,184.316 305.465,184.742 302.200 C 184.942 300.660,185.472 297.150,185.918 294.400 C 187.460 284.905,187.600 281.310,187.599 251.382 C 187.599 218.634,187.709 219.915,184.800 218.923 C 183.177 218.369,153.120 218.265,150.829 218.805 " stroke="none" fill="#f9f9f9" fill-rule="evenodd"></path></g></svg>