<?xml version="1.0" standalone="no"?>
<!DOCTYPE svg PUBLIC "-//W3C//DTD SVG 20010904//EN"
 "http://www.w3.org/TR/2001/REC-SVG-20010904/DTD/svg10.dtd">
<svg version="1.0" xmlns="http://www.w3.org/2000/svg"
 width="1024.000000pt" height="1024.000000pt" viewBox="0 0 1024.000000 1024.000000"
 preserveAspectRatio="xMidYMid meet">
<metadata>
Created by potrace 1.16, written by Peter Selinger 2001-2019
</metadata>
<g transform="translate(0.000000,1024.000000) scale(0.100000,-0.100000)"
fill="#000000" stroke="none">
<path d="M0 5120 l0 -5120 5120 0 5120 0 0 5120 0 5120 -5120 0 -5120 0 0
-5120z m2971 3770 c19 -5 47 -22 62 -38 l27 -28 2 -1317 c3 -1154 5 -1318 18
-1331 27 -28 187 -36 705 -37 281 -1 603 -4 717 -8 198 -6 208 -7 230 -29 23
-22 23 -23 26 -375 l3 -353 -25 -23 c-22 -21 -41 -25 -133 -33 -59 -5 -644 -8
-1300 -6 l-1192 3 -30 29 -31 30 2 1740 3 1740 34 23 34 23 406 0 c237 0 421
-4 442 -10z m4029 -281 c41 -6 102 -19 135 -29 34 -10 88 -21 120 -25 66 -8
225 -67 298 -112 179 -109 221 -140 289 -212 70 -75 210 -267 248 -340 37 -74
92 -229 123 -350 l32 -126 0 -320 c0 -328 -6 -387 -41 -416 -12 -10 -216 -13
-1017 -17 -981 -4 -1002 -5 -1024 -24 -49 -45 -32 -166 47 -325 55 -112 91
-150 197 -209 247 -139 562 -170 1066 -103 48 6 123 28 192 54 152 59 226 78
259 66 45 -18 51 -43 54 -241 4 -220 -8 -362 -33 -390 -29 -32 -147 -87 -225
-104 -41 -9 -102 -27 -135 -40 -33 -13 -89 -27 -125 -31 -36 -4 -110 -15 -165
-26 -280 -52 -691 -54 -886 -4 -31 8 -92 20 -135 26 -74 10 -122 26 -320 104
-252 100 -542 392 -684 690 -91 190 -146 446 -157 725 -5 145 -1 188 48 519
48 324 353 797 629 976 190 124 357 199 518 234 50 11 113 27 139 37 26 9 73
20 103 25 66 9 344 2 450 -12z m635 -3900 c45 -7 85 -19 100 -31 l25 -19 -1
-397 c0 -424 -4 -464 -46 -470 -12 -2 -43 4 -70 14 -37 13 -95 18 -249 22
l-202 4 -100 -52 c-186 -97 -263 -178 -355 -370 -50 -103 -51 -108 -58 -225
-4 -66 -8 -410 -9 -765 -1 -613 -9 -934 -25 -972 -15 -36 -76 -42 -470 -42
-209 0 -406 3 -438 8 -50 6 -60 11 -70 34 -9 21 -12 400 -12 1591 l0 1564 28
21 c28 20 40 21 423 24 429 3 492 -2 534 -43 23 -24 25 -31 30 -202 6 -166 16
-223 38 -223 15 0 60 55 102 124 108 179 240 283 455 361 143 52 239 63 370
44z m-2931 -69 c33 -5 64 -14 69 -19 22 -22 28 -121 33 -611 8 -711 -4 -1047
-50 -1355 -36 -236 -62 -338 -116 -445 -17 -33 -40 -84 -51 -113 -54 -136
-237 -354 -378 -449 -135 -89 -280 -153 -446 -194 -82 -20 -194 -40 -250 -45
-55 -4 -395 -8 -755 -8 l-655 0 -28 34 -27 33 -3 298 c-2 312 2 353 41 370 10
4 307 12 662 18 l645 11 78 40 c43 22 100 60 125 85 71 68 137 205 163 341 7
33 14 413 19 989 5 671 11 946 19 972 9 29 19 39 39 44 15 3 32 7 37 9 25 8
776 4 829 -5z"/>
<path d="M6560 7917 c-213 -88 -429 -353 -430 -526 0 -46 4 -59 27 -83 l27
-28 552 0 552 0 26 31 c17 19 26 43 26 63 0 52 -46 223 -80 294 -40 86 -131
174 -237 230 l-80 42 -164 0 c-147 0 -170 -3 -219 -23z"/>
</g>
</svg>
